<svg id="kity_svg_6" xmlns="http://www.w3.org/2000/svg" xmlns:xlink="http://www.w3.org/1999/xlink" version="1.1" width="731" height="602" style="background: rgb(251, 251, 251); visibility: visible;" viewBox="0 0 731 602"><defs id="kity_defs_7"><linearGradient id="kity_linearGradient_17" x1="0" y1="0" x2="0" y2="1"><stop id="kity_stop_18" offset="0" stop-color="rgb(255, 255, 255)"></stop><stop id="kity_stop_19" offset="1" stop-color="rgb(204, 204, 204)"></stop></linearGradient><marker id="kity_marker_4" orient="auto" refX="6" refY="0" viewBox="-7 -7 14 14" markerWidth="7" markerHeight="7" markerUnits="userSpaceOnUse"><path id="kity_path_5" fill="rgb(115, 161, 191)" stroke="none" d="M6,0A6,6,0,1,1,-6,0A6,6,0,1,1,6,0"></path></marker><marker id="kity_marker_2" orient="auto" refX="6" refY="0" viewBox="-7 -7 14 14" markerWidth="7" markerHeight="7" markerUnits="userSpaceOnUse"><path id="kity_path_3" fill="rgb(115, 161, 191)" stroke="none" d="M6,0A6,6,0,1,1,-6,0A6,6,0,1,1,6,0"></path></marker></defs><g id="kity_g_8"><g id="minder1" text-rendering="optimize-speed"><g id="minder_connect_group1"><path id="kity_path_55" fill="none" stroke="rgb(115, 161, 191)" stroke-width="1" d="M113.50000520050526,348.5000089854002A182,149,0,0,1,295.50000520050526,199.5000089854002"></path><path id="kity_path_71" fill="none" stroke="rgb(115, 161, 191)" stroke-width="1" d="M113.50000520050526,348.5000089854002A164,167,0,0,0,277.50000520050526,515.5000089854002"></path><path id="kity_path_274" fill="none" stroke="rgb(115, 161, 191)" stroke-width="1" d="M470.50000520050526,515.5000089854002C485.50000520050526,515.5000089854002,485.50000520050526,477.5000089854002,500.50000520050526,477.5000089854002L615.5000052005053,477.5000089854002"></path><path id="kity_path_275" fill="none" stroke="rgb(115, 161, 191)" stroke-width="1" d="M470.50000520050526,515.5000089854002C485.50000520050526,515.5000089854002,485.50000520050526,529.5000089854002,500.50000520050526,529.5000089854002L600.5000052005053,529.5000089854002"></path><path id="kity_path_276" fill="none" stroke="rgb(115, 161, 191)" stroke-width="1" d="M470.50000520050526,515.5000089854002C485.50000520050526,515.5000089854002,485.50000520050526,581.5000089854002,500.50000520050526,581.5000089854002L593.5000052005053,581.5000089854002"></path><path id="kity_path_277" fill="none" stroke="rgb(115, 161, 191)" stroke-width="1" d="M567.5000052005053,70.5000089854002C582.5000052005053,70.5000089854002,582.5000052005053,44.5000089854002,597.5000052005053,44.5000089854002L711.5000052005053,44.5000089854002"></path><path id="kity_path_278" fill="none" stroke="rgb(115, 161, 191)" stroke-width="1" d="M567.5000052005053,70.5000089854002C582.5000052005053,70.5000089854002,582.5000052005053,96.5000089854002,597.5000052005053,96.5000089854002L683.5000052005053,96.5000089854002"></path><path id="kity_path_279" fill="none" stroke="rgb(115, 161, 191)" stroke-width="1" d="M455.50000520050526,199.5000089854002C470.50000520050526,199.5000089854002,470.50000520050526,70.5000089854002,485.50000520050526,70.5000089854002L567.5000052005053,70.5000089854002"></path><path id="kity_path_280" fill="none" stroke="rgb(115, 161, 191)" stroke-width="1" d="M566.5000052005053,174.5000089854002C581.5000052005053,174.5000089854002,581.5000052005053,148.5000089854002,596.5000052005053,148.5000089854002L709.5000052005053,148.5000089854002"></path><path id="kity_path_281" fill="none" stroke="rgb(115, 161, 191)" stroke-width="1" d="M566.5000052005053,174.5000089854002C581.5000052005053,174.5000089854002,581.5000052005053,200.5000089854002,596.5000052005053,200.5000089854002L679.5000052005053,200.5000089854002"></path><path id="kity_path_282" fill="none" stroke="rgb(115, 161, 191)" stroke-width="1" d="M455.50000520050526,199.5000089854002C470.50000520050526,199.5000089854002,470.50000520050526,174.5000089854002,485.50000520050526,174.5000089854002L566.5000052005053,174.5000089854002"></path><path id="kity_path_283" fill="none" stroke="rgb(115, 161, 191)" stroke-width="1" d="M546.5000052005053,278.5000089854002C561.5000052005053,278.5000089854002,561.5000052005053,252.5000089854002,576.5000052005053,252.5000089854002L664.5000052005053,252.5000089854002"></path><path id="kity_path_284" fill="none" stroke="rgb(115, 161, 191)" stroke-width="1" d="M546.5000052005053,278.5000089854002C561.5000052005053,278.5000089854002,561.5000052005053,304.5000089854002,576.5000052005053,304.5000089854002L677.5000052005053,304.5000089854002"></path><path id="kity_path_285" fill="none" stroke="rgb(115, 161, 191)" stroke-width="1" d="M455.50000520050526,199.5000089854002C470.50000520050526,199.5000089854002,470.50000520050526,278.5000089854002,485.50000520050526,278.5000089854002L546.5000052005053,278.5000089854002"></path><path id="kity_path_286" fill="none" stroke="rgb(115, 161, 191)" stroke-width="1" d="M455.50000520050526,199.5000089854002C478.00000520050526,199.5000089854002,478.00000520050526,421.5000089854002,500.50000520050526,421.5000089854002L598.5000052005053,421.5000089854002"></path></g><g id="minder_node1"><path id="kity_path_192" fill="rgba(0, 0, 0, .25)" stroke="none" d="M28.500005200505257,326.5000089854002h246a5,5,0,0,1,5,5v44a5,5,0,0,1,-5,5h-246a5,5,0,0,1,-5,-5v-44a5,5,0,0,1,5,-5z" display="none"></path><path id="node_outline1" fill="rgb(115, 161, 191)" stroke="rgb(115, 161, 191)" d="M25.500005200505257,328.5000089854002h176a5,5,0,0,1,5,5v30a5,5,0,0,1,-5,5h-176a5,5,0,0,1,-5,-5v-30a5,5,0,0,1,5,-5z" stroke-width="3"></path><g id="node_text1" fill="white"><text id="kity_text_22" text-rendering="inherit" font-size="16" dy=".8em" y="338.1000088185072" x="44.50000520050526">Sorting Algorithm</text></g></g><g id="kity_g_14" display="none"><path id="kity_path_15" fill="none" stroke="none" d="M44.50000520050526,348.5000089854002h0v0h0z"></path><path id="kity_path_16" fill="none" stroke="none"></path></g><g id="minder_node5" opacity="1"><path id="kity_path_190" fill="rgba(0, 0, 0, .25)" stroke="none" d="M306.50001333653927,190.50000454485416h165a5,5,0,0,1,5,5v18a5,5,0,0,1,-5,5h-165a5,5,0,0,1,-5,-5v-18a5,5,0,0,1,5,-5z" display="none"></path><g id="node_expander4" style="cursor: pointer;"><path id="kity_path_60" fill="white" stroke="gray" d="M296.50001253187656,199.50000454485416A6,6,0,1,1,284.50001253187656,199.50000454485416A6,6,0,1,1,296.50001253187656,199.50000454485416"></path><path id="kity_path_61" fill="none" stroke="gray" d="M286.00001253187656,199.50000454485416L295.00001253187656,199.50000454485416"></path></g><path id="node_outline5" fill="rgb(238, 243, 246)" stroke="rgb(115, 161, 191)" d="M300.50001333653927,186.50000454485416h152a3,3,0,0,1,3,3v20a3,3,0,0,1,-3,3h-152a3,3,0,0,1,-3,-3v-20a3,3,0,0,1,3,-3z" stroke-width="1"></path><g id="node_text5" fill="black"><text id="kity_text_57" text-rendering="inherit" font-size="14" dy=".8em" y="190.4000045776367" x="317.50001333653927">Comparison sorts</text></g></g><g id="minder_node7" opacity="1"><path id="kity_path_191" fill="rgba(0, 0, 0, .25)" stroke="none" d="M288.50001280009747,506.50001396238804h202a5,5,0,0,1,5,5v18a5,5,0,0,1,-5,5h-202a5,5,0,0,1,-5,-5v-18a5,5,0,0,1,5,-5z" display="none"></path><g id="node_expander6" style="cursor: pointer;"><path id="kity_path_76" fill="white" stroke="gray" d="M483.50001810491085,515.500013962388A6,6,0,1,1,471.50001810491085,515.500013962388A6,6,0,1,1,483.50001810491085,515.500013962388"></path><path id="kity_path_77" fill="none" stroke="gray" d="M473.00001810491085,515.500013962388L482.00001810491085,515.500013962388"></path></g><path id="node_outline7" fill="rgb(238, 243, 246)" stroke="rgb(115, 161, 191)" d="M282.50001280009747,502.50001396238804h185a3,3,0,0,1,3,3v20a3,3,0,0,1,-3,3h-185a3,3,0,0,1,-3,-3v-20a3,3,0,0,1,3,-3z" stroke-width="1"></path><g id="node_text7" fill="black"><text id="kity_text_73" text-rendering="inherit" font-size="14" dy=".8em" y="506.40001399517064" x="299.50001280009747">Non-comparison sorts</text></g></g><g id="kity_g_12" display="none"><path id="kity_path_13" fill="none" stroke="rgb(66, 94, 112)" d="M529.5000052005053,480.5000089854002h75a5,5,0,0,1,5,5v12a5,5,0,0,1,-5,5h-75a5,5,0,0,1,-5,-5v-12a5,5,0,0,1,5,-5z" stroke-width="5"></path></g><g id="minder_node10"><path id="kity_path_204" fill="rgba(0, 0, 0, .25)" stroke="none" d="M551.5000193864107,435.0000124126673h0a34,34,0,0,1,34,34v0a34,34,0,0,1,-34,34h0a34,34,0,0,1,-34,-34v0a34,34,0,0,1,34,-34z" display="none"></path><g id="node_expander9" style="cursor: pointer;" display="none"><path id="kity_path_100" fill="white" stroke="gray" d="M510.50001890957355,463.5000124126673A6,6,0,1,1,498.50001890957355,463.5000124126673A6,6,0,1,1,510.50001890957355,463.5000124126673"></path><path id="kity_path_101" fill="none" stroke="gray"></path></g><path id="node_outline10" fill="#eeece1" stroke="none" d="M515.5000193864107,452.5000124126673h95a5,5,0,0,1,5,5v12a5,5,0,0,1,-5,5h-95a5,5,0,0,1,-5,-5v-12a5,5,0,0,1,5,-5z" stroke-width="3"></path><g id="node_text10" fill="#c0504d"><text id="kity_text_97" text-rendering="inherit" font-size="12" dy=".8em" y="455.7000124861797" font-weight="bold" x="520.5000193864107">Counting Sort</text></g></g><g id="minder_node9"><path id="kity_path_203" fill="rgba(0, 0, 0, .25)" stroke="none" d="M551.5000193864107,487.00001396238804h0a34,34,0,0,1,34,34v0a34,34,0,0,1,-34,34h0a34,34,0,0,1,-34,-34v0a34,34,0,0,1,34,-34z" display="none"></path><g id="node_expander8" style="cursor: pointer;" display="none"><path id="kity_path_92" fill="white" stroke="gray" d="M510.50001890957355,515.500013962388A6,6,0,1,1,498.50001890957355,515.500013962388A6,6,0,1,1,510.50001890957355,515.500013962388"></path><path id="kity_path_93" fill="none" stroke="gray"></path></g><path id="node_outline9" fill="#eeece1" stroke="none" d="M515.5000193864107,504.50001396238804h80a5,5,0,0,1,5,5v12a5,5,0,0,1,-5,5h-80a5,5,0,0,1,-5,-5v-12a5,5,0,0,1,5,-5z" stroke-width="3"></path><g id="node_text9" fill="#c0504d"><text id="kity_text_89" text-rendering="inherit" font-size="12" dy=".8em" y="507.7000140359005" font-weight="bold" x="520.5000193864107">Bucket Sort</text></g></g><g id="minder_node11"><path id="kity_path_205" fill="rgba(0, 0, 0, .25)" stroke="none" d="M551.5000193864107,539.0000155121088h0a34,34,0,0,1,34,34v0a34,34,0,0,1,-34,34h0a34,34,0,0,1,-34,-34v0a34,34,0,0,1,34,-34z" display="none"></path><g id="node_expander10" style="cursor: pointer;" display="none"><path id="kity_path_108" fill="white" stroke="gray" d="M510.50001890957355,567.5000155121088A6,6,0,1,1,498.50001890957355,567.5000155121088A6,6,0,1,1,510.50001890957355,567.5000155121088"></path><path id="kity_path_109" fill="none" stroke="gray"></path></g><path id="node_outline11" fill="#eeece1" stroke="none" d="M515.5000193864107,556.5000155121088h73a5,5,0,0,1,5,5v12a5,5,0,0,1,-5,5h-73a5,5,0,0,1,-5,-5v-12a5,5,0,0,1,5,-5z" stroke-width="3"></path><g id="node_text11" fill="#c0504d"><text id="kity_text_105" text-rendering="inherit" font-size="12" dy=".8em" y="559.7000155856213" font-weight="bold" x="520.5000193864107">Radix Sort</text></g></g><g id="minder_node16"><path id="kity_path_193" fill="rgba(0, 0, 0, .25)" stroke="none" d="M665.000022277236,-14.00000049173832h0a50,50,0,0,1,50,50v0a50,50,0,0,1,-50,50h0a50,50,0,0,1,-50,-50v0a50,50,0,0,1,50,-50z" display="none"></path><g id="node_expander15" style="cursor: pointer;" display="none"><path id="kity_path_148" fill="white" stroke="gray" d="M607.5000218003988,30.49999950826168A6,6,0,1,1,595.5000218003988,30.49999950826168A6,6,0,1,1,607.5000218003988,30.49999950826168"></path><path id="kity_path_149" fill="none" stroke="gray"></path></g><path id="node_outline16" fill="#eeece1" stroke="none" d="M612.500022277236,19.49999950826168h94a5,5,0,0,1,5,5v12a5,5,0,0,1,-5,5h-94a5,5,0,0,1,-5,-5v-12a5,5,0,0,1,5,-5z" stroke-width="3"></path><g id="node_text16" fill="#c0504d"><text id="kity_text_145" text-rendering="inherit" font-size="12" dy=".8em" y="22.69999958177408" font-weight="bold" x="617.500022277236">Selection Sort</text></g></g><g id="minder_node17"><path id="kity_path_194" fill="rgba(0, 0, 0, .25)" stroke="none" d="M650.500022277236,52.000001057982445h0a36,36,0,0,1,36,36v0a36,36,0,0,1,-36,36h0a36,36,0,0,1,-36,-36v0a36,36,0,0,1,36,-36z" display="none"></path><g id="node_expander16" style="cursor: pointer;" display="none"><path id="kity_path_156" fill="white" stroke="gray" d="M607.5000218003988,82.50000105798244A6,6,0,1,1,595.5000218003988,82.50000105798244A6,6,0,1,1,607.5000218003988,82.50000105798244"></path><path id="kity_path_157" fill="none" stroke="gray"></path></g><path id="node_outline17" fill="#eeece1" stroke="none" d="M612.500022277236,71.50000105798244h66a5,5,0,0,1,5,5v12a5,5,0,0,1,-5,5h-66a5,5,0,0,1,-5,-5v-12a5,5,0,0,1,5,-5z" stroke-width="3"></path><g id="node_text17" fill="#c0504d"><text id="kity_text_153" text-rendering="inherit" font-size="12" dy=".8em" y="74.70000113149484" font-weight="bold" x="617.500022277236">Heapsort</text></g></g><g id="minder_node8"><path id="kity_path_195" fill="rgba(0, 0, 0, .25)" stroke="none" d="M538.0000189393759,27.000000283122063h0a35,35,0,0,1,35,35v0a35,35,0,0,1,-35,35h0a35,35,0,0,1,-35,-35v0a35,35,0,0,1,35,-35z" display="none"></path><g id="node_expander7" style="cursor: pointer;"><path id="kity_path_84" fill="white" stroke="gray" d="M495.5000184625387,56.50000028312206A6,6,0,1,1,483.5000184625387,56.50000028312206A6,6,0,1,1,495.5000184625387,56.50000028312206"></path><path id="kity_path_85" fill="none" stroke="gray" d="M485.0000184625387,56.50000028312206L494.0000184625387,56.50000028312206"></path></g><path id="node_outline8" fill="none" stroke="none" d="M500.5000189393759,45.50000028312206h62a5,5,0,0,1,5,5v12a5,5,0,0,1,-5,5h-62a5,5,0,0,1,-5,-5v-12a5,5,0,0,1,5,-5z" stroke-width="3"></path><g id="node_text8" fill="black"><text id="kity_text_81" text-rendering="inherit" font-size="12" dy=".8em" y="48.70000035663446" x="505.5000189393759">Selection</text></g></g><g id="minder_node18"><path id="kity_path_196" fill="rgba(0, 0, 0, .25)" stroke="none" d="M663.0000222474337,91.00000260770321h0a49,49,0,0,1,49,49v0a49,49,0,0,1,-49,49h0a49,49,0,0,1,-49,-49v0a49,49,0,0,1,49,-49z" display="none"></path><g id="node_expander17" style="cursor: pointer;" display="none"><path id="kity_path_164" fill="white" stroke="gray" d="M606.5000217705965,134.5000026077032A6,6,0,1,1,594.5000217705965,134.5000026077032A6,6,0,1,1,606.5000217705965,134.5000026077032"></path><path id="kity_path_165" fill="none" stroke="gray"></path></g><path id="node_outline18" fill="#eeece1" stroke="none" d="M611.5000222474337,123.50000260770321h93a5,5,0,0,1,5,5v12a5,5,0,0,1,-5,5h-93a5,5,0,0,1,-5,-5v-12a5,5,0,0,1,5,-5z" stroke-width="3"></path><g id="node_text18" fill="#c0504d"><text id="kity_text_161" text-rendering="inherit" font-size="12" dy=".8em" y="126.70000268121561" font-weight="bold" x="616.5000222474337">Insertion Sort</text></g></g><g id="minder_node19"><path id="kity_path_197" fill="rgba(0, 0, 0, .25)" stroke="none" d="M647.5000222474337,158.00000415742397h0a34,34,0,0,1,34,34v0a34,34,0,0,1,-34,34h0a34,34,0,0,1,-34,-34v0a34,34,0,0,1,34,-34z" display="none"></path><g id="node_expander18" style="cursor: pointer;" display="none"><path id="kity_path_172" fill="white" stroke="gray" d="M606.5000217705965,186.50000415742397A6,6,0,1,1,594.5000217705965,186.50000415742397A6,6,0,1,1,606.5000217705965,186.50000415742397"></path><path id="kity_path_173" fill="none" stroke="gray"></path></g><path id="node_outline19" fill="#eeece1" stroke="none" d="M611.5000222474337,175.50000415742397h63a5,5,0,0,1,5,5v12a5,5,0,0,1,-5,5h-63a5,5,0,0,1,-5,-5v-12a5,5,0,0,1,5,-5z" stroke-width="3"></path><g id="node_text19" fill="#c0504d"><text id="kity_text_169" text-rendering="inherit" font-size="12" dy=".8em" y="178.70000423093637" font-weight="bold" x="616.5000222474337">Shellsort</text></g></g><g id="minder_node12"><path id="kity_path_198" fill="rgba(0, 0, 0, .25)" stroke="none" d="M537.0000189393759,132.0000033825636h0a34,34,0,0,1,34,34v0a34,34,0,0,1,-34,34h0a34,34,0,0,1,-34,-34v0a34,34,0,0,1,34,-34z" display="none"></path><g id="node_expander11" style="cursor: pointer;"><path id="kity_path_116" fill="white" stroke="gray" d="M495.5000184625387,160.5000033825636A6,6,0,1,1,483.5000184625387,160.5000033825636A6,6,0,1,1,495.5000184625387,160.5000033825636"></path><path id="kity_path_117" fill="none" stroke="gray" d="M485.0000184625387,160.5000033825636L494.0000184625387,160.5000033825636"></path></g><path id="node_outline12" fill="none" stroke="none" d="M500.5000189393759,149.5000033825636h61a5,5,0,0,1,5,5v12a5,5,0,0,1,-5,5h-61a5,5,0,0,1,-5,-5v-12a5,5,0,0,1,5,-5z" stroke-width="3"></path><g id="node_text12" fill="black"><text id="kity_text_113" text-rendering="inherit" font-size="12" dy=".8em" y="152.700003456076" x="505.5000189393759">Insertion</text></g></g><g id="minder_node20"><path id="kity_path_199" fill="rgba(0, 0, 0, .25)" stroke="none" d="M630.5000216513872,207.00000570714474h0a37,37,0,0,1,37,37v0a37,37,0,0,1,-37,37h0a37,37,0,0,1,-37,-37v0a37,37,0,0,1,37,-37z" display="none"></path><g id="node_expander19" style="cursor: pointer;" display="none"><path id="kity_path_180" fill="white" stroke="gray" d="M586.50002117455,238.50000570714474A6,6,0,1,1,574.50002117455,238.50000570714474A6,6,0,1,1,586.50002117455,238.50000570714474"></path><path id="kity_path_181" fill="none" stroke="gray"></path></g><path id="node_outline20" fill="#eeece1" stroke="none" d="M591.5000216513872,227.50000570714474h68a5,5,0,0,1,5,5v12a5,5,0,0,1,-5,5h-68a5,5,0,0,1,-5,-5v-12a5,5,0,0,1,5,-5z" stroke-width="3"></path><g id="node_text20" fill="#c0504d"><text id="kity_text_177" text-rendering="inherit" font-size="12" dy=".8em" y="230.70000578065714" font-weight="bold" x="596.5000216513872">Quicksort</text></g></g><g id="minder_node21"><path id="kity_path_200" fill="rgba(0, 0, 0, .25)" stroke="none" d="M637.5000216513872,252.0000072568655h0a44,44,0,0,1,44,44v0a44,44,0,0,1,-44,44h0a44,44,0,0,1,-44,-44v0a44,44,0,0,1,44,-44z" display="none"></path><g id="node_expander20" style="cursor: pointer;" display="none"><path id="kity_path_188" fill="white" stroke="gray" d="M586.50002117455,290.5000072568655A6,6,0,1,1,574.50002117455,290.5000072568655A6,6,0,1,1,586.50002117455,290.5000072568655"></path><path id="kity_path_189" fill="none" stroke="gray"></path></g><path id="node_outline21" fill="#eeece1" stroke="none" d="M591.5000216513872,279.5000072568655h81a5,5,0,0,1,5,5v12a5,5,0,0,1,-5,5h-81a5,5,0,0,1,-5,-5v-12a5,5,0,0,1,5,-5z" stroke-width="3"></path><g id="node_text21" fill="#c0504d"><text id="kity_text_185" text-rendering="inherit" font-size="12" dy=".8em" y="282.7000073303779" font-weight="bold" x="596.5000216513872">Bubble Sort</text></g></g><g id="minder_node13"><path id="kity_path_201" fill="rgba(0, 0, 0, .25)" stroke="none" d="M526.5000189393759,245.00000648200512h0a25,25,0,0,1,25,25v0a25,25,0,0,1,-25,25h0a25,25,0,0,1,-25,-25v0a25,25,0,0,1,25,-25z" display="none"></path><g id="node_expander12" style="cursor: pointer;"><path id="kity_path_124" fill="white" stroke="gray" d="M495.5000184625387,264.5000064820051A6,6,0,1,1,483.5000184625387,264.5000064820051A6,6,0,1,1,495.5000184625387,264.5000064820051"></path><path id="kity_path_125" fill="none" stroke="gray" d="M485.0000184625387,264.5000064820051L494.0000184625387,264.5000064820051"></path></g><path id="node_outline13" fill="none" stroke="none" d="M500.5000189393759,253.50000648200512h41a5,5,0,0,1,5,5v12a5,5,0,0,1,-5,5h-41a5,5,0,0,1,-5,-5v-12a5,5,0,0,1,5,-5z" stroke-width="3"></path><g id="node_text13" fill="black"><text id="kity_text_121" text-rendering="inherit" font-size="12" dy=".8em" y="256.7000065555175" x="505.5000189393759">Swap</text></g></g><g id="minder_node14" opacity="1"><path id="kity_path_202" fill="rgba(0, 0, 0, .25)" stroke="none" d="M560.0000193864107,371.0000107437372h0a42,42,0,0,1,42,42v0a42,42,0,0,1,-42,42h0a42,42,0,0,1,-42,-42v0a42,42,0,0,1,42,-42z" display="none"></path><g id="node_expander13" style="cursor: pointer;" display="none"><path id="kity_path_132" fill="white" stroke="gray" d="M510.50001890957355,407.5000107437372A6,6,0,1,1,498.50001890957355,407.5000107437372A6,6,0,1,1,510.50001890957355,407.5000107437372"></path><path id="kity_path_133" fill="none" stroke="gray"></path></g><path id="node_outline14" fill="#eeece1" stroke="none" d="M515.5000193864107,396.5000107437372h78a5,5,0,0,1,5,5v12a5,5,0,0,1,-5,5h-78a5,5,0,0,1,-5,-5v-12a5,5,0,0,1,5,-5z" stroke-width="3"></path><g id="node_text14" fill="#c0504d"><text id="kity_text_129" text-rendering="inherit" font-size="12" dy=".8em" y="399.7000108172496" font-weight="bold" x="520.5000193864107">Merge Sort</text></g></g></g></g></svg>