<svg id="kity_svg_6" xmlns="http://www.w3.org/2000/svg" xmlns:xlink="http://www.w3.org/1999/xlink" version="1.1" width="935" height="649" style="background: rgb(251, 251, 251); visibility: visible;" viewBox="0 0 935 649"><defs id="kity_defs_7"><linearGradient id="kity_linearGradient_17" x1="0" y1="0" x2="0" y2="1"><stop id="kity_stop_18" offset="0" stop-color="rgb(255, 255, 255)"></stop><stop id="kity_stop_19" offset="1" stop-color="rgb(204, 204, 204)"></stop></linearGradient><marker id="kity_marker_2" orient="auto" refX="6" refY="0" viewBox="-7 -7 14 14" markerWidth="7" markerHeight="7" markerUnits="userSpaceOnUse"><path id="kity_path_3" fill="rgb(115, 161, 191)" stroke="none" d="M6,0A6,6,0,1,1,-6,0A6,6,0,1,1,6,0"></path></marker></defs><g id="kity_g_8"><g id="minder1" text-rendering="optimize-speed"><g id="minder_connect_group1"><path id="kity_path_31" fill="none" stroke="rgb(115, 161, 191)" stroke-width="1" d="M113.50000758469105,361.50000719726086A182,149,0,0,1,295.50000758469105,212.50000719726086"></path><path id="kity_path_33" fill="none" stroke="rgb(115, 161, 191)" stroke-width="1" d="M455.50000758469105,212.50000719726086C470.50000758469105,212.50000719726086,470.50000758469105,70.50000719726086,485.50000758469105,70.50000719726086L599.500007584691,70.50000719726086"></path><path id="kity_path_35" fill="none" stroke="rgb(115, 161, 191)" stroke-width="1" d="M599.500007584691,70.50000719726086C614.500007584691,70.50000719726086,614.500007584691,44.50000719726086,629.500007584691,44.50000719726086L743.500007584691,44.50000719726086"></path><path id="kity_path_37" fill="none" stroke="rgb(115, 161, 191)" stroke-width="1" d="M599.500007584691,70.50000719726086C614.500007584691,70.50000719726086,614.500007584691,96.50000719726086,629.500007584691,96.50000719726086L715.500007584691,96.50000719726086"></path><path id="kity_path_39" fill="none" stroke="rgb(115, 161, 191)" stroke-width="1" d="M455.50000758469105,212.50000719726086C470.50000758469105,212.50000719726086,470.50000758469105,174.50000719726086,485.50000758469105,174.50000719726086L597.500007584691,174.50000719726086"></path><path id="kity_path_41" fill="none" stroke="rgb(115, 161, 191)" stroke-width="1" d="M597.500007584691,174.50000719726086C612.500007584691,174.50000719726086,612.500007584691,148.50000719726086,627.500007584691,148.50000719726086L740.500007584691,148.50000719726086"></path><path id="kity_path_43" fill="none" stroke="rgb(115, 161, 191)" stroke-width="1" d="M597.500007584691,174.50000719726086C612.500007584691,174.50000719726086,612.500007584691,200.50000719726086,627.500007584691,200.50000719726086L710.500007584691,200.50000719726086"></path><path id="kity_path_45" fill="none" stroke="rgb(115, 161, 191)" stroke-width="1" d="M455.50000758469105,212.50000719726086C470.50000758469105,212.50000719726086,470.50000758469105,278.50000719726086,485.50000758469105,278.50000719726086L601.500007584691,278.50000719726086"></path><path id="kity_path_47" fill="none" stroke="rgb(115, 161, 191)" stroke-width="1" d="M601.500007584691,278.50000719726086C616.500007584691,278.50000719726086,616.500007584691,252.50000719726086,631.500007584691,252.50000719726086L720.500007584691,252.50000719726086"></path><path id="kity_path_49" fill="none" stroke="rgb(115, 161, 191)" stroke-width="1" d="M601.500007584691,278.50000719726086C616.500007584691,278.50000719726086,616.500007584691,304.50000719726086,631.500007584691,304.50000719726086L733.500007584691,304.50000719726086"></path><path id="kity_path_51" fill="none" stroke="rgb(115, 161, 191)" stroke-width="1" d="M733.500007584691,304.50000719726086C748.500007584691,304.50000719726086,748.500007584691,304.50000719726086,763.500007584691,304.50000719726086L915.500007584691,304.50000719726086"></path><path id="kity_path_53" fill="none" stroke="rgb(115, 161, 191)" stroke-width="1" d="M455.50000758469105,212.50000719726086C476.00000758469105,212.50000719726086,476.00000758469105,404.50000719726086,496.50000758469105,404.50000719726086L595.500007584691,404.50000719726086"></path><path id="kity_path_55" fill="none" stroke="rgb(115, 161, 191)" stroke-width="1" d="M595.500007584691,404.50000719726086C610.500007584691,404.50000719726086,610.500007584691,378.50000719726086,625.500007584691,378.50000719726086L782.500007584691,378.50000719726086"></path><path id="kity_path_57" fill="none" stroke="rgb(115, 161, 191)" stroke-width="1" d="M595.500007584691,404.50000719726086C610.500007584691,404.50000719726086,610.500007584691,430.50000719726086,625.500007584691,430.50000719726086L763.500007584691,430.50000719726086"></path><path id="kity_path_59" fill="none" stroke="rgb(115, 161, 191)" stroke-width="1" d="M113.50000758469105,361.50000719726086A131,162,0,0,0,244.50000758469105,523.5000071972609"></path><path id="kity_path_198" fill="none" stroke="rgb(115, 161, 191)" stroke-width="1" d="M596.500007584691,537.5000071972609C611.500007584691,537.5000071972609,611.500007584691,472.50000719726086,626.500007584691,472.50000719726086L741.500007584691,472.50000719726086"></path><path id="kity_path_199" fill="none" stroke="rgb(115, 161, 191)" stroke-width="1" d="M596.500007584691,537.5000071972609C611.500007584691,537.5000071972609,611.500007584691,524.5000071972609,626.500007584691,524.5000071972609L726.500007584691,524.5000071972609"></path><path id="kity_path_200" fill="none" stroke="rgb(115, 161, 191)" stroke-width="1" d="M719.500007584691,602.5000071972609C734.500007584691,602.5000071972609,734.500007584691,576.5000071972609,749.500007584691,576.5000071972609L872.500007584691,576.5000071972609"></path><path id="kity_path_201" fill="none" stroke="rgb(115, 161, 191)" stroke-width="1" d="M719.500007584691,602.5000071972609C734.500007584691,602.5000071972609,734.500007584691,628.5000071972609,749.500007584691,628.5000071972609L877.500007584691,628.5000071972609"></path><path id="kity_path_202" fill="none" stroke="rgb(115, 161, 191)" stroke-width="1" d="M596.500007584691,537.5000071972609C611.500007584691,537.5000071972609,611.500007584691,602.5000071972609,626.500007584691,602.5000071972609L719.500007584691,602.5000071972609"></path><path id="kity_path_203" fill="none" stroke="rgb(115, 161, 191)" stroke-width="1" d="M437.50000758469105,523.5000071972609C452.50000758469105,523.5000071972609,452.50000758469105,537.5000071972609,467.50000758469105,537.5000071972609L596.500007584691,537.5000071972609"></path></g><g id="minder_node1"><path id="node_outline1" fill="rgb(115, 161, 191)" stroke="rgb(115, 161, 191)" d="M25.500007584691048,341.50000719726086h176a5,5,0,0,1,5,5v30a5,5,0,0,1,-5,5h-176a5,5,0,0,1,-5,-5v-30a5,5,0,0,1,5,-5z" stroke-width="3"></path><g id="node_text1" fill="white"><text id="kity_text_22" text-rendering="inherit" font-size="16" dy=".8em" y="351.10000703036786" x="44.50000758469105">Sorting Algorithm</text></g></g><g id="kity_g_12" display="none"><path id="kity_path_13" fill="none" stroke="none" d="M44.50000758469105,361.50000719726086h0v0h0z"></path></g><g id="kity_g_14" display="none"><path id="kity_path_15" fill="none" stroke="none" d="M44.50000758469105,361.50000719726086h0v0h0z"></path><path id="kity_path_16" fill="none" stroke="none"></path></g><g id="minder_node2"><g id="node_expander14" style="cursor: pointer;"><path id="kity_path_175" fill="white" stroke="gray" d="M296.50001491606236,212.50000275671482A6,6,0,1,1,284.50001491606236,212.50000275671482A6,6,0,1,1,296.50001491606236,212.50000275671482"></path><path id="kity_path_176" fill="none" stroke="gray" d="M286.00001491606236,212.50000275671482L295.00001491606236,212.50000275671482"></path></g><path id="node_outline15" fill="rgb(238, 243, 246)" stroke="rgb(115, 161, 191)" d="M300.50001572072506,199.50000275671482h152a3,3,0,0,1,3,3v20a3,3,0,0,1,-3,3h-152a3,3,0,0,1,-3,-3v-20a3,3,0,0,1,3,-3z" stroke-width="1"></path><g id="node_text15" fill="black"><text id="kity_text_99" text-rendering="inherit" font-size="14" dy=".8em" y="203.40000278949736" x="317.50001572072506">Comparison sorts</text></g></g><g id="minder_node3"><g id="node_expander3" style="cursor: pointer;"><path id="kity_path_142" fill="white" stroke="gray" d="M495.5000208467245,56.49999810755253A6,6,0,1,1,483.5000208467245,56.49999810755253A6,6,0,1,1,495.5000208467245,56.49999810755253"></path><path id="kity_path_143" fill="none" stroke="gray" d="M485.0000208467245,56.49999810755253L494.0000208467245,56.49999810755253"></path></g><path id="node_outline4" fill="none" stroke="none" d="M500.50002132356167,45.49999810755253h94a5,5,0,0,1,5,5v12a5,5,0,0,1,-5,5h-94a5,5,0,0,1,-5,-5v-12a5,5,0,0,1,5,-5z"></path><g id="node_text4" fill="black"><text id="kity_text_77" text-rendering="inherit" font-size="12" dy=".8em" y="48.69999818106493" x="505.50002132356167">Selection sorts</text></g></g><g id="minder_node4"><g id="node_expander1" style="cursor: pointer;" display="none"><path id="kity_path_136" fill="white" stroke="gray" d="M639.5000251382589,30.499997332692146A6,6,0,1,1,627.5000251382589,30.499997332692146A6,6,0,1,1,639.5000251382589,30.499997332692146"></path><path id="kity_path_137" fill="none" stroke="gray"></path></g><path id="node_outline2" fill="#eeece1" stroke="none" d="M644.5000256150961,19.499997332692146h94a5,5,0,0,1,5,5v12a5,5,0,0,1,-5,5h-94a5,5,0,0,1,-5,-5v-12a5,5,0,0,1,5,-5z"></path><g id="node_text2" fill="#c0504d"><text id="kity_text_73" text-rendering="inherit" font-size="12" dy=".8em" font-weight="bold" y="22.699997406204545" x="649.5000256150961">Selection Sort</text></g></g><g id="minder_node5"><g id="node_expander2" style="cursor: pointer;" display="none"><path id="kity_path_139" fill="white" stroke="gray" d="M639.5000251382589,82.49999888241291A6,6,0,1,1,627.5000251382589,82.49999888241291A6,6,0,1,1,639.5000251382589,82.49999888241291"></path><path id="kity_path_140" fill="none" stroke="gray"></path></g><path id="node_outline3" fill="#eeece1" stroke="none" d="M644.5000256150961,71.49999888241291h66a5,5,0,0,1,5,5v12a5,5,0,0,1,-5,5h-66a5,5,0,0,1,-5,-5v-12a5,5,0,0,1,5,-5z"></path><g id="node_text3" fill="#c0504d"><text id="kity_text_75" text-rendering="inherit" font-size="12" dy=".8em" font-weight="bold" y="74.69999895592531" x="649.5000256150961">Heapsort</text></g></g><g id="minder_node6"><g id="node_expander6" style="cursor: pointer;"><path id="kity_path_151" fill="white" stroke="gray" d="M495.5000208467245,160.50000120699406A6,6,0,1,1,483.5000208467245,160.50000120699406A6,6,0,1,1,495.5000208467245,160.50000120699406"></path><path id="kity_path_152" fill="none" stroke="gray" d="M485.0000208467245,160.50000120699406L494.0000208467245,160.50000120699406"></path></g><path id="node_outline7" fill="none" stroke="none" d="M500.50002132356167,149.50000120699406h92a5,5,0,0,1,5,5v12a5,5,0,0,1,-5,5h-92a5,5,0,0,1,-5,-5v-12a5,5,0,0,1,5,-5z"></path><g id="node_text7" fill="black"><text id="kity_text_83" text-rendering="inherit" font-size="12" dy=".8em" y="152.70000128050646" x="505.50002132356167">Insertion sorts</text></g></g><g id="minder_node7"><g id="node_expander4" style="cursor: pointer;" display="none"><path id="kity_path_145" fill="white" stroke="gray" d="M637.5000250786543,134.50000043213367A6,6,0,1,1,625.5000250786543,134.50000043213367A6,6,0,1,1,637.5000250786543,134.50000043213367"></path><path id="kity_path_146" fill="none" stroke="gray"></path></g><path id="node_outline5" fill="#eeece1" stroke="none" d="M642.5000255554914,123.50000043213367h93a5,5,0,0,1,5,5v12a5,5,0,0,1,-5,5h-93a5,5,0,0,1,-5,-5v-12a5,5,0,0,1,5,-5z"></path><g id="node_text5" fill="#c0504d"><text id="kity_text_79" text-rendering="inherit" font-size="12" dy=".8em" font-weight="bold" y="126.70000050564607" x="647.5000255554914">Insertion Sort</text></g></g><g id="minder_node8"><g id="node_expander5" style="cursor: pointer;" display="none"><path id="kity_path_148" fill="white" stroke="gray" d="M637.5000250786543,186.50000198185444A6,6,0,1,1,625.5000250786543,186.50000198185444A6,6,0,1,1,637.5000250786543,186.50000198185444"></path><path id="kity_path_149" fill="none" stroke="gray"></path></g><path id="node_outline6" fill="#eeece1" stroke="none" d="M642.5000255554914,175.50000198185444h63a5,5,0,0,1,5,5v12a5,5,0,0,1,-5,5h-63a5,5,0,0,1,-5,-5v-12a5,5,0,0,1,5,-5z"></path><g id="node_text6" fill="#c0504d"><text id="kity_text_81" text-rendering="inherit" font-size="12" dy=".8em" font-weight="bold" y="178.70000205536684" x="647.5000255554914">Shellsort</text></g></g><g id="minder_node9"><g id="node_expander10" style="cursor: pointer;"><path id="kity_path_163" fill="white" stroke="gray" d="M495.5000208467245,264.5000043064356A6,6,0,1,1,483.5000208467245,264.5000043064356A6,6,0,1,1,495.5000208467245,264.5000043064356"></path><path id="kity_path_164" fill="none" stroke="gray" d="M485.0000208467245,264.5000043064356L494.0000208467245,264.5000043064356"></path></g><path id="node_outline11" fill="none" stroke="none" d="M500.50002132356167,253.50000430643559h96a5,5,0,0,1,5,5v12a5,5,0,0,1,-5,5h-96a5,5,0,0,1,-5,-5v-12a5,5,0,0,1,5,-5z"></path><g id="node_text11" fill="black"><text id="kity_text_91" text-rendering="inherit" font-size="12" dy=".8em" y="256.700004379948" x="505.50002132356167">Exchange sorts</text></g></g><g id="minder_node10"><g id="node_expander7" style="cursor: pointer;" display="none"><path id="kity_path_154" fill="white" stroke="gray" d="M641.5000251978636,238.5000035315752A6,6,0,1,1,629.5000251978636,238.5000035315752A6,6,0,1,1,641.5000251978636,238.5000035315752"></path><path id="kity_path_155" fill="none" stroke="gray"></path></g><path id="node_outline8" fill="#eeece1" stroke="none" d="M646.5000256747007,227.5000035315752h69a5,5,0,0,1,5,5v12a5,5,0,0,1,-5,5h-69a5,5,0,0,1,-5,-5v-12a5,5,0,0,1,5,-5z"></path><g id="node_text8" fill="#c0504d"><text id="kity_text_85" text-rendering="inherit" font-size="12" dy=".8em" font-weight="bold" y="230.7000036050876" x="651.5000256747007">Quicksort</text></g></g><g id="minder_node11"><g id="node_expander9" style="cursor: pointer;"><path id="kity_path_160" fill="white" stroke="gray" d="M641.5000251978636,290.50000508129597A6,6,0,1,1,629.5000251978636,290.50000508129597A6,6,0,1,1,641.5000251978636,290.50000508129597"></path><path id="kity_path_161" fill="none" stroke="gray" d="M631.0000251978636,290.50000508129597L640.0000251978636,290.50000508129597"></path></g><path id="node_outline10" fill="#eeece1" stroke="none" d="M646.5000256747007,279.50000508129597h82a5,5,0,0,1,5,5v12a5,5,0,0,1,-5,5h-82a5,5,0,0,1,-5,-5v-12a5,5,0,0,1,5,-5z"></path><g id="node_text10" fill="#c0504d"><text id="kity_text_89" text-rendering="inherit" font-size="12" dy=".8em" font-weight="bold" y="282.70000515480837" x="651.5000256747007">Bubble Sort</text></g></g><g id="minder_node12"><g id="node_expander8" style="cursor: pointer;" display="none"><path id="kity_path_157" fill="white" stroke="gray" d="M773.5000291317701,290.50000508129597A6,6,0,1,1,761.5000291317701,290.50000508129597A6,6,0,1,1,773.5000291317701,290.50000508129597"></path><path id="kity_path_158" fill="none" stroke="gray"></path></g><path id="node_outline9" fill="#eeece1" stroke="none" d="M778.5000296086073,279.50000508129597h132a5,5,0,0,1,5,5v12a5,5,0,0,1,-5,5h-132a5,5,0,0,1,-5,-5v-12a5,5,0,0,1,5,-5z"></path><g id="node_text9" fill="#c0504d"><text id="kity_text_87" text-rendering="inherit" font-size="12" dy=".8em" font-weight="bold" y="282.70000515480837" x="783.5000296086073">Cocktail Shaker Sort</text></g></g><g id="minder_node13"><g id="node_expander13" style="cursor: pointer;"><path id="kity_path_172" fill="white" stroke="gray" d="M506.50002117455006,390.5000080615282A6,6,0,1,1,494.50002117455006,390.5000080615282A6,6,0,1,1,506.50002117455006,390.5000080615282"></path><path id="kity_path_173" fill="none" stroke="gray" d="M496.00002117455006,390.5000080615282L505.00002117455006,390.5000080615282"></path></g><path id="node_outline14" fill="none" stroke="none" d="M511.5000216513872,379.5000080615282h79a5,5,0,0,1,5,5v12a5,5,0,0,1,-5,5h-79a5,5,0,0,1,-5,-5v-12a5,5,0,0,1,5,-5z"></path><g id="node_text14" fill="black"><text id="kity_text_97" text-rendering="inherit" font-size="12" dy=".8em" y="382.7000081350406" x="516.5000216513872">Merge sorts</text></g></g><g id="minder_node14"><g id="node_expander11" style="cursor: pointer;" display="none"><path id="kity_path_166" fill="white" stroke="gray" d="M635.5000250190496,364.5000072866678A6,6,0,1,1,623.5000250190496,364.5000072866678A6,6,0,1,1,635.5000250190496,364.5000072866678"></path><path id="kity_path_167" fill="none" stroke="gray"></path></g><path id="node_outline12" fill="#eeece1" stroke="none" d="M640.5000254958868,353.5000072866678h137a5,5,0,0,1,5,5v12a5,5,0,0,1,-5,5h-137a5,5,0,0,1,-5,-5v-12a5,5,0,0,1,5,-5z"></path><g id="node_text12" fill="#c0504d"><text id="kity_text_93" text-rendering="inherit" font-size="12" dy=".8em" font-weight="bold" y="356.7000073601802" x="645.5000254958868">Two-way&#xa0;Merge Sort</text></g></g><g id="minder_node15"><g id="node_expander12" style="cursor: pointer;" display="none"><path id="kity_path_169" fill="white" stroke="gray" d="M635.5000250190496,416.5000088363886A6,6,0,1,1,623.5000250190496,416.5000088363886A6,6,0,1,1,635.5000250190496,416.5000088363886"></path><path id="kity_path_170" fill="none" stroke="gray"></path></g><path id="node_outline13" fill="#eeece1" stroke="none" d="M640.5000254958868,405.5000088363886h118a5,5,0,0,1,5,5v12a5,5,0,0,1,-5,5h-118a5,5,0,0,1,-5,-5v-12a5,5,0,0,1,5,-5z"></path><g id="node_text13" fill="#c0504d"><text id="kity_text_95" text-rendering="inherit" font-size="12" dy=".8em" font-weight="bold" y="408.700008909901" x="645.5000254958868">k-way Merge Sort</text></g></g><g id="minder_node16" opacity="1"><g id="node_expander21" style="cursor: pointer;"><path id="kity_path_196" fill="white" stroke="gray" d="M450.50001950562,523.5000120252371A6,6,0,1,1,438.50001950562,523.5000120252371A6,6,0,1,1,450.50001950562,523.5000120252371"></path><path id="kity_path_197" fill="none" stroke="gray" d="M440.00001950562,523.5000120252371L449.00001950562,523.5000120252371"></path></g><path id="node_outline22" fill="rgb(238, 243, 246)" stroke="rgb(115, 161, 191)" d="M249.50001420080662,510.5000120252371h185a3,3,0,0,1,3,3v20a3,3,0,0,1,-3,3h-185a3,3,0,0,1,-3,-3v-20a3,3,0,0,1,3,-3z" stroke-width="1"></path><g id="node_text22" fill="black"><text id="kity_text_113" text-rendering="inherit" font-size="14" dy=".8em" y="514.4000120580197" x="266.5000142008066">Non-comparison sorts</text></g></g><g id="minder_node18"><g id="node_expander15" style="cursor: pointer;" display="none"><path id="kity_path_178" fill="white" stroke="gray" d="M636.500025048852,458.5000100880861A6,6,0,1,1,624.500025048852,458.5000100880861A6,6,0,1,1,636.500025048852,458.5000100880861"></path><path id="kity_path_179" fill="none" stroke="gray"></path></g><path id="node_outline16" fill="#eeece1" stroke="none" d="M641.5000255256891,447.5000100880861h95a5,5,0,0,1,5,5v12a5,5,0,0,1,-5,5h-95a5,5,0,0,1,-5,-5v-12a5,5,0,0,1,5,-5z"></path><g id="node_text16" fill="#c0504d"><text id="kity_text_101" text-rendering="inherit" font-size="12" dy=".8em" font-weight="bold" y="450.7000101615985" x="646.5000255256891">Counting Sort</text></g></g><g id="minder_node19"><g id="node_expander16" style="cursor: pointer;" display="none"><path id="kity_path_181" fill="white" stroke="gray" d="M636.500025048852,510.5000116378069A6,6,0,1,1,624.500025048852,510.5000116378069A6,6,0,1,1,636.500025048852,510.5000116378069"></path><path id="kity_path_182" fill="none" stroke="gray"></path></g><path id="node_outline17" fill="#eeece1" stroke="none" d="M641.5000255256891,499.5000116378069h80a5,5,0,0,1,5,5v12a5,5,0,0,1,-5,5h-80a5,5,0,0,1,-5,-5v-12a5,5,0,0,1,5,-5z"></path><g id="node_text17" fill="#c0504d"><text id="kity_text_103" text-rendering="inherit" font-size="12" dy=".8em" font-weight="bold" y="502.7000117113193" x="646.5000255256891">Bucket Sort</text></g></g><g id="minder_node21"><g id="node_expander17" style="cursor: pointer;" display="none"><path id="kity_path_184" fill="white" stroke="gray" d="M759.5000287145376,562.5000131875277A6,6,0,1,1,747.5000287145376,562.5000131875277A6,6,0,1,1,759.5000287145376,562.5000131875277"></path><path id="kity_path_185" fill="none" stroke="gray"></path></g><path id="node_outline18" fill="#eeece1" stroke="none" d="M764.5000291913748,551.5000131875277h103a5,5,0,0,1,5,5v12a5,5,0,0,1,-5,5h-103a5,5,0,0,1,-5,-5v-12a5,5,0,0,1,5,-5z" stroke-width="3"></path><g id="node_text18" fill="#c0504d"><text id="kity_text_105" text-rendering="inherit" font-size="12" dy=".8em" font-weight="bold" y="554.7000132610401" x="769.5000291913748">LSD String Sort</text></g></g><g id="minder_node22"><g id="node_expander18" style="cursor: pointer;" display="none"><path id="kity_path_187" fill="white" stroke="gray" d="M759.5000287145376,614.5000147372484A6,6,0,1,1,747.5000287145376,614.5000147372484A6,6,0,1,1,759.5000287145376,614.5000147372484"></path><path id="kity_path_188" fill="none" stroke="gray"></path></g><path id="node_outline19" fill="#eeece1" stroke="none" d="M764.5000291913748,603.5000147372484h108a5,5,0,0,1,5,5v12a5,5,0,0,1,-5,5h-108a5,5,0,0,1,-5,-5v-12a5,5,0,0,1,5,-5z" stroke-width="3"></path><g id="node_text19" fill="#c0504d"><text id="kity_text_107" text-rendering="inherit" font-size="12" dy=".8em" y="606.7000148107609" font-weight="bold" x="769.5000291913748">MSD String Sort</text></g></g><g id="minder_node20"><g id="node_expander19" style="cursor: pointer;"><path id="kity_path_190" fill="white" stroke="gray" d="M636.500025048852,588.500013962388A6,6,0,1,1,624.500025048852,588.500013962388A6,6,0,1,1,636.500025048852,588.500013962388"></path><path id="kity_path_191" fill="none" stroke="gray" d="M626.000025048852,588.500013962388L635.000025048852,588.500013962388"></path></g><path id="node_outline20" fill="#eeece1" stroke="none" d="M641.5000255256891,577.500013962388h73a5,5,0,0,1,5,5v12a5,5,0,0,1,-5,5h-73a5,5,0,0,1,-5,-5v-12a5,5,0,0,1,5,-5z"></path><g id="node_text20" fill="#c0504d"><text id="kity_text_109" text-rendering="inherit" font-size="12" dy=".8em" font-weight="bold" y="580.7000140359005" x="646.5000255256891">Radix Sort</text></g></g><g id="minder_node17"><g id="node_expander20" style="cursor: pointer;"><path id="kity_path_193" fill="white" stroke="gray" d="M477.5000203102827,523.5000120252371A6,6,0,1,1,465.5000203102827,523.5000120252371A6,6,0,1,1,477.5000203102827,523.5000120252371"></path><path id="kity_path_194" fill="none" stroke="gray" d="M467.0000203102827,523.5000120252371L476.0000203102827,523.5000120252371"></path></g><path id="node_outline21" fill="none" stroke="none" d="M482.50002078711987,512.5000120252371h109a5,5,0,0,1,5,5v12a5,5,0,0,1,-5,5h-109a5,5,0,0,1,-5,-5v-12a5,5,0,0,1,5,-5z"></path><g id="node_text21" fill="black"><text id="kity_text_111" text-rendering="inherit" font-size="12" dy=".8em" y="515.7000120987495" x="487.50002078711987">Distribution sorts</text></g></g></g></g></svg>