<svg id="kity_svg_6" xmlns="http://www.w3.org/2000/svg" xmlns:xlink="http://www.w3.org/1999/xlink" version="1.1" width="935" height="620" style="background: rgb(251, 251, 251); visibility: visible;" viewBox="0 0 935 620"><defs id="kity_defs_7"><linearGradient id="kity_linearGradient_17" x1="0" y1="0" x2="0" y2="1"><stop id="kity_stop_18" offset="0" stop-color="rgb(255, 255, 255)"></stop><stop id="kity_stop_19" offset="1" stop-color="rgb(204, 204, 204)"></stop></linearGradient><marker id="kity_marker_2" orient="auto" refX="6" refY="0" viewBox="-7 -7 14 14" markerWidth="7" markerHeight="7" markerUnits="userSpaceOnUse"><path id="kity_path_3" fill="rgb(115, 161, 191)" stroke="none" d="M6,0A6,6,0,1,1,-6,0A6,6,0,1,1,6,0"></path></marker></defs><g id="kity_g_8"><g id="minder1" text-rendering="geometricPrecision"><g id="minder_connect_group1"><path id="kity_path_31" fill="none" stroke="rgb(115, 161, 191)" stroke-width="1" d="M113.50000570714474,361.50000880658627A182,149,0,0,1,295.50000570714474,212.50000880658627"></path><path id="kity_path_33" fill="none" stroke="rgb(115, 161, 191)" stroke-width="1" d="M455.50000570714474,212.50000880658627C470.50000570714474,212.50000880658627,470.50000570714474,70.50000880658627,485.50000570714474,70.50000880658627L599.5000057071447,70.50000880658627"></path><path id="kity_path_35" fill="none" stroke="rgb(115, 161, 191)" stroke-width="1" d="M599.5000057071447,70.50000880658627C614.5000057071447,70.50000880658627,614.5000057071447,44.500008806586266,629.5000057071447,44.500008806586266L743.5000057071447,44.500008806586266"></path><path id="kity_path_37" fill="none" stroke="rgb(115, 161, 191)" stroke-width="1" d="M599.5000057071447,70.50000880658627C614.5000057071447,70.50000880658627,614.5000057071447,96.50000880658627,629.5000057071447,96.50000880658627L715.5000057071447,96.50000880658627"></path><path id="kity_path_39" fill="none" stroke="rgb(115, 161, 191)" stroke-width="1" d="M455.50000570714474,212.50000880658627C470.50000570714474,212.50000880658627,470.50000570714474,174.50000880658627,485.50000570714474,174.50000880658627L597.5000057071447,174.50000880658627"></path><path id="kity_path_41" fill="none" stroke="rgb(115, 161, 191)" stroke-width="1" d="M597.5000057071447,174.50000880658627C612.5000057071447,174.50000880658627,612.5000057071447,148.50000880658627,627.5000057071447,148.50000880658627L740.5000057071447,148.50000880658627"></path><path id="kity_path_43" fill="none" stroke="rgb(115, 161, 191)" stroke-width="1" d="M597.5000057071447,174.50000880658627C612.5000057071447,174.50000880658627,612.5000057071447,200.50000880658627,627.5000057071447,200.50000880658627L710.5000057071447,200.50000880658627"></path><path id="kity_path_45" fill="none" stroke="rgb(115, 161, 191)" stroke-width="1" d="M455.50000570714474,212.50000880658627C470.50000570714474,212.50000880658627,470.50000570714474,278.50000880658627,485.50000570714474,278.50000880658627L601.5000057071447,278.50000880658627"></path><path id="kity_path_47" fill="none" stroke="rgb(115, 161, 191)" stroke-width="1" d="M601.5000057071447,278.50000880658627C616.5000057071447,278.50000880658627,616.5000057071447,252.50000880658627,631.5000057071447,252.50000880658627L720.5000057071447,252.50000880658627"></path><path id="kity_path_49" fill="none" stroke="rgb(115, 161, 191)" stroke-width="1" d="M601.5000057071447,278.50000880658627C616.5000057071447,278.50000880658627,616.5000057071447,304.50000880658627,631.5000057071447,304.50000880658627L733.5000057071447,304.50000880658627"></path><path id="kity_path_51" fill="none" stroke="rgb(115, 161, 191)" stroke-width="1" d="M733.5000057071447,304.50000880658627C748.5000057071447,304.50000880658627,748.5000057071447,304.50000880658627,763.5000057071447,304.50000880658627L915.5000057071447,304.50000880658627"></path><path id="kity_path_53" fill="none" stroke="rgb(115, 161, 191)" stroke-width="1" d="M455.50000570714474,212.50000880658627C476.00000570714474,212.50000880658627,476.00000570714474,404.50000880658627,496.50000570714474,404.50000880658627L595.5000057071447,404.50000880658627"></path><path id="kity_path_55" fill="none" stroke="rgb(115, 161, 191)" stroke-width="1" d="M113.50000570714474,361.50000880658627A144,172,0,0,0,257.50000570714474,533.5000088065863"></path><path id="kity_path_332" fill="none" stroke="rgb(115, 161, 191)" stroke-width="1" d="M609.5000057071447,547.5000088065863C624.5000057071447,547.5000088065863,624.5000057071447,495.50000880658627,639.5000057071447,495.50000880658627L739.5000057071447,495.50000880658627"></path><path id="kity_path_333" fill="none" stroke="rgb(115, 161, 191)" stroke-width="1" d="M609.5000057071447,547.5000088065863C624.5000057071447,547.5000088065863,624.5000057071447,547.5000088065863,639.5000057071447,547.5000088065863L754.5000057071447,547.5000088065863"></path><path id="kity_path_334" fill="none" stroke="rgb(115, 161, 191)" stroke-width="1" d="M609.5000057071447,547.5000088065863C624.5000057071447,547.5000088065863,624.5000057071447,599.5000088065863,639.5000057071447,599.5000088065863L732.5000057071447,599.5000088065863"></path><path id="kity_path_335" fill="none" stroke="rgb(115, 161, 191)" stroke-width="1" d="M450.50000570714474,533.5000088065863C465.50000570714474,533.5000088065863,465.50000570714474,547.5000088065863,480.50000570714474,547.5000088065863L609.5000057071447,547.5000088065863"></path><path id="kity_path_352" fill="none" stroke="rgb(115, 161, 191)" stroke-width="1" d="M595.5000057071447,404.50000880658627C610.5000057071447,404.50000880658627,610.5000057071447,378.50000880658627,625.5000057071447,378.50000880658627L783.5000057071447,378.50000880658627"></path><path id="kity_path_353" fill="none" stroke="rgb(115, 161, 191)" stroke-width="1" d="M595.5000057071447,404.50000880658627C610.5000057071447,404.50000880658627,610.5000057071447,430.50000880658627,625.5000057071447,430.50000880658627L763.5000057071447,430.50000880658627"></path></g><g id="minder_node1"><path id="node_outline1" fill="rgb(115, 161, 191)" stroke="rgb(115, 161, 191)" d="M25.500005707144737,341.50000880658627h176a5,5,0,0,1,5,5v30a5,5,0,0,1,-5,5h-176a5,5,0,0,1,-5,-5v-30a5,5,0,0,1,5,-5z" stroke-width="3"></path><g id="node_text1" fill="white"><text id="kity_text_22" text-rendering="inherit" font-size="16" dy=".8em" y="351.10000863969327" x="44.50000570714474">Sorting Algorithm</text></g></g><g id="kity_g_12" display="none"><path id="kity_path_13" fill="none" stroke="none" d="M44.50000570714474,361.50000880658627h0v0h0z"></path></g><g id="kity_g_14" display="none"><path id="kity_path_15" fill="none" stroke="none" d="M44.50000570714474,361.50000880658627h0v0h0z"></path><path id="kity_path_16" fill="none" stroke="none"></path></g><g id="minder_node2"><g id="node_expander12" style="cursor: pointer;"><path id="kity_path_144" fill="white" stroke="gray" d="M296.50001303851604,212.50000436604023A6,6,0,1,1,284.50001303851604,212.50000436604023A6,6,0,1,1,296.50001303851604,212.50000436604023"></path><path id="kity_path_145" fill="none" stroke="gray" d="M286.00001303851604,212.50000436604023L295.00001303851604,212.50000436604023"></path></g><path id="node_outline13" fill="rgb(238, 243, 246)" stroke="rgb(115, 161, 191)" d="M300.50001384317875,199.50000436604023h152a3,3,0,0,1,3,3v20a3,3,0,0,1,-3,3h-152a3,3,0,0,1,-3,-3v-20a3,3,0,0,1,3,-3z" stroke-width="1"></path><g id="node_text13" fill="black"><text id="kity_text_85" text-rendering="inherit" font-size="14" dy=".8em" y="203.40000439882277" x="317.50001384317875">Comparison sorts</text></g></g><g id="minder_node3"><g id="node_expander3" style="cursor: pointer;"><path id="kity_path_117" fill="white" stroke="gray" d="M495.5000189691782,56.49999971687794A6,6,0,1,1,483.5000189691782,56.49999971687794A6,6,0,1,1,495.5000189691782,56.49999971687794"></path><path id="kity_path_118" fill="none" stroke="gray" d="M485.0000189691782,56.49999971687794L494.0000189691782,56.49999971687794"></path></g><path id="node_outline4" fill="none" stroke="none" d="M500.50001944601536,45.49999971687794h94a5,5,0,0,1,5,5v12a5,5,0,0,1,-5,5h-94a5,5,0,0,1,-5,-5v-12a5,5,0,0,1,5,-5z" stroke-width="3"></path><g id="node_text4" fill="black"><text id="kity_text_67" text-rendering="inherit" font-size="12" dy=".8em" y="48.699999790390336" x="505.50001944601536">Selection sorts</text></g></g><g id="minder_node4"><g id="node_expander1" style="cursor: pointer;" display="none"><path id="kity_path_111" fill="white" stroke="gray" d="M639.5000232607126,30.499998942017555A6,6,0,1,1,627.5000232607126,30.499998942017555A6,6,0,1,1,639.5000232607126,30.499998942017555"></path><path id="kity_path_112" fill="none" stroke="gray"></path></g><path id="node_outline2" fill="#eeece1" stroke="none" d="M644.5000237375498,19.499998942017555h94a5,5,0,0,1,5,5v12a5,5,0,0,1,-5,5h-94a5,5,0,0,1,-5,-5v-12a5,5,0,0,1,5,-5z"></path><g id="node_text2" fill="#c0504d"><text id="kity_text_63" text-rendering="inherit" font-size="12" dy=".8em" font-weight="bold" y="22.699999015529954" x="649.5000237375498">Selection Sort</text></g></g><g id="minder_node5"><g id="node_expander2" style="cursor: pointer;" display="none"><path id="kity_path_114" fill="white" stroke="gray" d="M639.5000232607126,82.50000049173832A6,6,0,1,1,627.5000232607126,82.50000049173832A6,6,0,1,1,639.5000232607126,82.50000049173832"></path><path id="kity_path_115" fill="none" stroke="gray"></path></g><path id="node_outline3" fill="#eeece1" stroke="none" d="M644.5000237375498,71.50000049173832h66a5,5,0,0,1,5,5v12a5,5,0,0,1,-5,5h-66a5,5,0,0,1,-5,-5v-12a5,5,0,0,1,5,-5z"></path><g id="node_text3" fill="#c0504d"><text id="kity_text_65" text-rendering="inherit" font-size="12" dy=".8em" font-weight="bold" y="74.70000056525072" x="649.5000237375498">Heapsort</text></g></g><g id="minder_node6"><g id="node_expander6" style="cursor: pointer;"><path id="kity_path_126" fill="white" stroke="gray" d="M495.5000189691782,160.50000281631947A6,6,0,1,1,483.5000189691782,160.50000281631947A6,6,0,1,1,495.5000189691782,160.50000281631947"></path><path id="kity_path_127" fill="none" stroke="gray" d="M485.0000189691782,160.50000281631947L494.0000189691782,160.50000281631947"></path></g><path id="node_outline7" fill="none" stroke="none" d="M500.50001944601536,149.50000281631947h92a5,5,0,0,1,5,5v12a5,5,0,0,1,-5,5h-92a5,5,0,0,1,-5,-5v-12a5,5,0,0,1,5,-5z" stroke-width="3"></path><g id="node_text7" fill="black"><text id="kity_text_73" text-rendering="inherit" font-size="12" dy=".8em" y="152.70000288983186" x="505.50001944601536">Insertion sorts</text></g></g><g id="minder_node7"><g id="node_expander4" style="cursor: pointer;" display="none"><path id="kity_path_120" fill="white" stroke="gray" d="M637.500023201108,134.50000204145908A6,6,0,1,1,625.500023201108,134.50000204145908A6,6,0,1,1,637.500023201108,134.50000204145908"></path><path id="kity_path_121" fill="none" stroke="gray"></path></g><path id="node_outline5" fill="#eeece1" stroke="none" d="M642.5000236779451,123.50000204145908h93a5,5,0,0,1,5,5v12a5,5,0,0,1,-5,5h-93a5,5,0,0,1,-5,-5v-12a5,5,0,0,1,5,-5z"></path><g id="node_text5" fill="#c0504d"><text id="kity_text_69" text-rendering="inherit" font-size="12" dy=".8em" font-weight="bold" y="126.70000211497148" x="647.5000236779451">Insertion Sort</text></g></g><g id="minder_node8"><g id="node_expander5" style="cursor: pointer;" display="none"><path id="kity_path_123" fill="white" stroke="gray" d="M637.500023201108,186.50000359117985A6,6,0,1,1,625.500023201108,186.50000359117985A6,6,0,1,1,637.500023201108,186.50000359117985"></path><path id="kity_path_124" fill="none" stroke="gray"></path></g><path id="node_outline6" fill="#eeece1" stroke="none" d="M642.5000236779451,175.50000359117985h63a5,5,0,0,1,5,5v12a5,5,0,0,1,-5,5h-63a5,5,0,0,1,-5,-5v-12a5,5,0,0,1,5,-5z"></path><g id="node_text6" fill="#c0504d"><text id="kity_text_71" text-rendering="inherit" font-size="12" dy=".8em" font-weight="bold" y="178.70000366469225" x="647.5000236779451">Shellsort</text></g></g><g id="minder_node9"><g id="node_expander10" style="cursor: pointer;"><path id="kity_path_138" fill="white" stroke="gray" d="M495.5000189691782,264.500005915761A6,6,0,1,1,483.5000189691782,264.500005915761A6,6,0,1,1,495.5000189691782,264.500005915761"></path><path id="kity_path_139" fill="none" stroke="gray" d="M485.0000189691782,264.500005915761L494.0000189691782,264.500005915761"></path></g><path id="node_outline11" fill="none" stroke="none" d="M500.50001944601536,253.500005915761h96a5,5,0,0,1,5,5v12a5,5,0,0,1,-5,5h-96a5,5,0,0,1,-5,-5v-12a5,5,0,0,1,5,-5z" stroke-width="3"></path><g id="node_text11" fill="black"><text id="kity_text_81" text-rendering="inherit" font-size="12" dy=".8em" y="256.7000059892734" x="505.50001944601536">Exchange sorts</text></g></g><g id="minder_node10"><g id="node_expander7" style="cursor: pointer;" display="none"><path id="kity_path_129" fill="white" stroke="gray" d="M641.5000233203173,238.5000051409006A6,6,0,1,1,629.5000233203173,238.5000051409006A6,6,0,1,1,641.5000233203173,238.5000051409006"></path><path id="kity_path_130" fill="none" stroke="gray"></path></g><path id="node_outline8" fill="#eeece1" stroke="none" d="M646.5000237971544,227.5000051409006h69a5,5,0,0,1,5,5v12a5,5,0,0,1,-5,5h-69a5,5,0,0,1,-5,-5v-12a5,5,0,0,1,5,-5z"></path><g id="node_text8" fill="#c0504d"><text id="kity_text_75" text-rendering="inherit" font-size="12" dy=".8em" font-weight="bold" y="230.700005214413" x="651.5000237971544">Quicksort</text></g></g><g id="minder_node11"><g id="node_expander9" style="cursor: pointer;"><path id="kity_path_135" fill="white" stroke="gray" d="M641.5000233203173,290.5000066906214A6,6,0,1,1,629.5000233203173,290.5000066906214A6,6,0,1,1,641.5000233203173,290.5000066906214"></path><path id="kity_path_136" fill="none" stroke="gray" d="M631.0000233203173,290.5000066906214L640.0000233203173,290.5000066906214"></path></g><path id="node_outline10" fill="#eeece1" stroke="none" d="M646.5000237971544,279.5000066906214h82a5,5,0,0,1,5,5v12a5,5,0,0,1,-5,5h-82a5,5,0,0,1,-5,-5v-12a5,5,0,0,1,5,-5z" stroke-width="3"></path><g id="node_text10" fill="#c0504d"><text id="kity_text_79" text-rendering="inherit" font-size="12" dy=".8em" font-weight="bold" y="282.7000067641338" x="651.5000237971544">Bubble Sort</text></g></g><g id="minder_node12"><g id="node_expander8" style="cursor: pointer;" display="none"><path id="kity_path_132" fill="white" stroke="gray" d="M773.5000272542238,290.5000066906214A6,6,0,1,1,761.5000272542238,290.5000066906214A6,6,0,1,1,773.5000272542238,290.5000066906214"></path><path id="kity_path_133" fill="none" stroke="gray"></path></g><path id="node_outline9" fill="#eeece1" stroke="none" d="M778.500027731061,279.5000066906214h132a5,5,0,0,1,5,5v12a5,5,0,0,1,-5,5h-132a5,5,0,0,1,-5,-5v-12a5,5,0,0,1,5,-5z"></path><g id="node_text9" fill="#c0504d"><text id="kity_text_77" text-rendering="inherit" font-size="12" dy=".8em" font-weight="bold" y="282.7000067641338" x="783.500027731061">Cocktail Shaker Sort</text></g></g><g id="minder_node13" opacity="1"><g id="node_expander11" style="cursor: pointer;"><path id="kity_path_141" fill="white" stroke="gray" d="M506.50001929700375,390.5000096708536A6,6,0,1,1,494.50001929700375,390.5000096708536A6,6,0,1,1,506.50001929700375,390.5000096708536"></path><path id="kity_path_142" fill="none" stroke="gray" d="M496.00001929700375,390.5000096708536L505.00001929700375,390.5000096708536"></path></g><path id="node_outline12" fill="none" stroke="none" d="M511.5000197738409,379.5000096708536h79a5,5,0,0,1,5,5v12a5,5,0,0,1,-5,5h-79a5,5,0,0,1,-5,-5v-12a5,5,0,0,1,5,-5z" stroke-width="3"></path><g id="node_text12" fill="black"><text id="kity_text_83" text-rendering="inherit" font-size="12" dy=".8em" y="382.700009744366" x="516.5000197738409">Merge sorts</text></g></g><g id="minder_node14" opacity="1"><g id="node_expander16" style="cursor: pointer;"><path id="kity_path_156" fill="white" stroke="gray" d="M463.5000180155039,533.5000139325857A6,6,0,1,1,451.5000180155039,533.5000139325857A6,6,0,1,1,463.5000180155039,533.5000139325857"></path><path id="kity_path_157" fill="none" stroke="gray" d="M453.0000180155039,533.5000139325857L462.0000180155039,533.5000139325857"></path></g><path id="node_outline17" fill="rgb(238, 243, 246)" stroke="rgb(115, 161, 191)" d="M262.5000127106905,520.5000139325857h185a3,3,0,0,1,3,3v20a3,3,0,0,1,-3,3h-185a3,3,0,0,1,-3,-3v-20a3,3,0,0,1,3,-3z" stroke-width="1"></path><g id="node_text17" fill="black"><text id="kity_text_93" text-rendering="inherit" font-size="14" dy=".8em" y="524.4000139653683" x="279.5000127106905">Non-comparison sorts</text></g></g><g id="minder_node27"><g id="node_expander26" style="cursor: pointer;" display="none"><path id="kity_path_239" fill="white" stroke="gray" d="M649.5000235587358,481.50001238286495A6,6,0,1,1,637.5000235587358,481.50001238286495A6,6,0,1,1,649.5000235587358,481.50001238286495"></path><path id="kity_path_240" fill="none" stroke="gray"></path></g><path id="node_outline27" fill="#eeece1" stroke="none" d="M654.500024035573,470.50001238286495h80a5,5,0,0,1,5,5v12a5,5,0,0,1,-5,5h-80a5,5,0,0,1,-5,-5v-12a5,5,0,0,1,5,-5z" stroke-width="3"></path><g id="node_text27" fill="#c0504d"><text id="kity_text_236" text-rendering="inherit" font-size="12" dy=".8em" y="473.70001245637735" font-weight="bold" x="659.500024035573">Bucket Sort</text></g></g><g id="minder_node28"><g id="node_expander27" style="cursor: pointer;" display="none"><path id="kity_path_247" fill="white" stroke="gray" d="M649.5000235587358,533.5000139325857A6,6,0,1,1,637.5000235587358,533.5000139325857A6,6,0,1,1,649.5000235587358,533.5000139325857"></path><path id="kity_path_248" fill="none" stroke="gray"></path></g><path id="node_outline28" fill="#eeece1" stroke="none" d="M654.500024035573,522.5000139325857h95a5,5,0,0,1,5,5v12a5,5,0,0,1,-5,5h-95a5,5,0,0,1,-5,-5v-12a5,5,0,0,1,5,-5z" stroke-width="3"></path><g id="node_text28" fill="#c0504d"><text id="kity_text_244" text-rendering="inherit" font-size="12" dy=".8em" y="525.7000140060982" font-weight="bold" x="659.500024035573">Counting Sort</text></g></g><g id="minder_node36"><g id="node_expander35" style="cursor: pointer;" display="none"><path id="kity_path_317" fill="white" stroke="gray" d="M649.5000235587358,585.5000154823065A6,6,0,1,1,637.5000235587358,585.5000154823065A6,6,0,1,1,649.5000235587358,585.5000154823065"></path><path id="kity_path_318" fill="none" stroke="gray"></path></g><path id="node_outline36" fill="#eeece1" stroke="none" d="M654.500024035573,574.5000154823065h73a5,5,0,0,1,5,5v12a5,5,0,0,1,-5,5h-73a5,5,0,0,1,-5,-5v-12a5,5,0,0,1,5,-5z" stroke-width="3"></path><g id="node_text36" fill="#c0504d"><text id="kity_text_314" text-rendering="inherit" font-size="12" dy=".8em" y="577.7000155558189" font-weight="bold" x="659.500024035573">Radix Sort</text></g></g><g id="minder_node26"><g id="node_expander25" style="cursor: pointer;"><path id="kity_path_231" fill="white" stroke="gray" d="M490.5000188201666,533.5000139325857A6,6,0,1,1,478.5000188201666,533.5000139325857A6,6,0,1,1,490.5000188201666,533.5000139325857"></path><path id="kity_path_232" fill="none" stroke="gray" d="M480.0000188201666,533.5000139325857L489.0000188201666,533.5000139325857"></path></g><path id="node_outline26" fill="none" stroke="none" d="M495.50001929700375,522.5000139325857h109a5,5,0,0,1,5,5v12a5,5,0,0,1,-5,5h-109a5,5,0,0,1,-5,-5v-12a5,5,0,0,1,5,-5z" stroke-width="3"></path><g id="node_text26" fill="black"><text id="kity_text_228" text-rendering="inherit" font-size="12" dy=".8em" y="525.7000140060982" x="500.50001929700375">Distribution sorts</text></g></g><g id="minder_node38"><g id="node_expander37" style="cursor: pointer;" display="none"><path id="kity_path_342" fill="white" stroke="gray" d="M635.5000231415033,364.50000889599323A6,6,0,1,1,623.5000231415033,364.50000889599323A6,6,0,1,1,635.5000231415033,364.50000889599323"></path><path id="kity_path_343" fill="none" stroke="gray"></path></g><path id="node_outline38" fill="#eeece1" stroke="none" d="M640.5000236183405,353.50000889599323h138a5,5,0,0,1,5,5v12a5,5,0,0,1,-5,5h-138a5,5,0,0,1,-5,-5v-12a5,5,0,0,1,5,-5z" stroke-width="3"></path><g id="node_text38" fill="#c0504d"><text id="kity_text_339" text-rendering="inherit" font-size="12" dy=".8em" y="356.70000896950563" font-weight="bold" x="645.5000236183405">Two-way&#xa0;Merge Sort</text></g></g><g id="minder_node39"><g id="node_expander38" style="cursor: pointer;" display="none"><path id="kity_path_350" fill="white" stroke="gray" d="M635.5000231415033,416.500010445714A6,6,0,1,1,623.5000231415033,416.500010445714A6,6,0,1,1,635.5000231415033,416.500010445714"></path><path id="kity_path_351" fill="none" stroke="gray"></path></g><path id="node_outline39" fill="#eeece1" stroke="none" d="M640.5000236183405,405.500010445714h118a5,5,0,0,1,5,5v12a5,5,0,0,1,-5,5h-118a5,5,0,0,1,-5,-5v-12a5,5,0,0,1,5,-5z" stroke-width="3"></path><g id="node_text39" fill="#c0504d"><text id="kity_text_347" text-rendering="inherit" font-size="12" dy=".8em" y="408.7000105192264" font-weight="bold" x="645.5000236183405">k-way Merge Sort</text></g></g></g></g></svg>